<svg width="246" height="272" viewBox="0 0 246 272" fill="none" xmlns="http://www.w3.org/2000/svg">
<path fill-rule="evenodd" clip-rule="evenodd" d="M69.0851 6.64377C45.1782 14.3894 24.3946 28.0521 7.95338 46.8304C-11.6085 69.1731 -23.2962 97.3204 -25.2149 126.71C-25.9943 138.645 -25.3385 149.692 -23.1495 161.509C-22.4685 165.184 -20.3247 173.606 -19.1408 177.257C-11.4509 200.967 2.01816 221.449 20.7357 237.896C37.5459 252.666 57.6013 263.02 79.3789 268.17C104.511 274.114 131.611 272.618 155.801 263.952C172.021 258.142 186.612 249.525 199.638 238.066C219.147 220.902 233.471 198.223 240.6 173.211C246.222 153.488 247.355 132.975 243.924 113.011C242.61 105.364 240.296 96.7239 237.629 89.5051C232.679 76.1054 225.685 63.5459 217.007 52.4707C207.894 40.8419 197.411 31.1288 184.996 22.8123C182.219 20.9517 174.072 16.2128 171.16 14.7642C156.559 7.5 141.839 3.09708 125.959 1.2445C111.713 -0.417211 98.0665 0.130884 83.3291 2.95686C80.7996 3.44186 71.6896 5.79982 69.0851 6.64377ZM37.343 61.2792C45.9267 60.0044 54.2692 61.032 61.6166 64.2693C66.0546 66.2248 70.8386 69.3482 74.8006 72.8769C78.3466 76.0353 80.9045 78.9862 84.4971 84.0637L85.6811 85.7372L81.2947 69.0647C78.8821 59.8948 76.9135 52.3747 76.9199 52.3534C76.9263 52.3322 79.7153 51.5849 83.1179 50.6927L89.3043 49.0707L112.255 134.597L135.206 220.123L128.997 221.787L122.787 223.451L122.589 222.783C122.479 222.416 121.012 217.114 119.329 211.001L116.267 199.886L115.518 203.16C114.62 207.086 114.119 208.776 113.121 211.26C111.298 215.796 108.804 219.831 105.572 223.473C99.5454 230.264 92.1909 234.377 81.883 236.723C74.479 238.408 67.3574 238.554 60.5756 237.159C47.1173 234.391 35.2624 224.344 28.3894 209.881C26.7102 206.347 25.8616 203.994 24.6459 199.499C23.9477 196.918 23.4209 194.714 23.258 193.693C21.3258 181.579 22.4333 170.431 26.6975 159.076C27.1838 157.781 27.7403 156.392 27.9344 155.99L28.2871 155.258L31.4927 156.211C35.3777 157.365 37.6291 158.115 37.6701 158.268C37.687 158.331 37.3632 159.769 36.9507 161.463C34.4601 171.695 33.6517 178.044 34.0556 184.201C34.5147 191.201 36.685 199.306 39.754 205.481C46.7456 219.549 59.5704 226.993 74.2043 225.478C85.9966 224.258 95.0825 218.694 100.044 209.655C103.696 203.003 104.843 195.387 103.55 186.389C103.28 184.511 101.384 177.439 100.562 175.245C96.6273 164.739 90.8276 157.647 80.2102 150.357C77.1865 148.281 69.8953 144.11 62.4722 140.211C53.95 135.735 50.4569 133.812 47.0351 131.716C40.1747 127.512 36.0283 124.257 32.7626 120.51C27.8273 114.849 25.0488 107.294 25.4476 100.621C25.618 97.7708 26.3574 95.1572 27.6602 92.8008C29.4344 89.5915 31.8155 87.3219 35.2487 85.5675C36.257 85.0522 36.9159 84.8206 38.9091 84.2803C41.7401 83.513 42.9247 83.3776 45.5803 83.5182C49.3911 83.7198 54.9084 85.3684 58.1895 87.2857C62.086 89.5626 68.2664 95.9821 72.0289 101.66C73.1813 103.399 74.5382 105.862 74.7221 106.549L74.8236 106.927L70.129 109.508C67.5471 110.928 65.3266 112.136 65.1944 112.193C64.9791 112.286 64.7995 112.018 63.4545 109.604C59.6289 102.737 57.0373 99.7849 52.6204 97.2622C48.1366 94.7016 44.1304 94.4463 40.8835 96.5142C38.8674 97.7985 37.9822 99.5062 37.9684 102.139C37.9639 103.012 38.0618 103.562 38.5435 105.37C40.1271 111.311 42.9367 114.54 50.8486 119.508C52.1129 120.302 57.2393 123.22 62.2407 125.993C83.7913 137.94 91.4541 142.737 96.5194 147.451C98.2091 149.023 100.789 151.933 102.941 154.694L104.796 157.074L97.7099 130.285C93.8127 115.551 90.3695 102.468 90.0584 101.211C89.7474 99.9538 89.4764 98.9298 89.4564 98.9352C89.4366 98.9405 88.0676 99.7353 86.4144 100.701C84.7612 101.668 83.2171 102.55 82.9832 102.662L82.5579 102.866L82.0308 101.52C80.0832 96.545 76.8743 91.5583 72.624 86.9019C68.4425 82.3206 65.7354 80.0551 61.5606 77.6434C58.0157 75.5957 55.2048 74.4695 51.626 73.6634C45.6039 72.3069 39.1313 72.7019 33.6625 74.7598C24.1717 78.3311 17.7171 85.9212 15.7741 95.7951C15.1278 99.0798 15.0229 102.473 15.4459 106.41C15.6761 108.553 17.2198 114.309 18.1596 116.529C20.131 121.185 22.1768 124.506 25.2381 128.018C30.7174 134.304 38.311 139.466 53.2636 147.07C60.6055 150.804 62.9529 152.062 67.7757 154.847C75.0502 159.048 78.571 161.596 82.1131 165.224C85.5423 168.735 88.8882 173.926 91.1307 179.214C92.0678 181.423 93.4696 186.671 93.7148 188.887C94.2475 193.704 93.7104 198.335 92.1755 202.158C91.0153 205.048 88.7137 208.258 86.4247 210.18C82.209 213.719 76.3572 215.675 70.4818 215.509C52.5248 215.002 40.7506 193.692 44.8732 169.161C45.3505 166.322 45.7515 164.783 46.8536 161.56C47.408 159.939 47.8838 158.537 47.911 158.444C47.9406 158.343 47.0435 157.786 45.6813 157.06C37.857 152.892 32.4134 149.685 28.494 146.933C17.4408 139.173 10.6395 131.046 6.09904 120.172C5.54052 118.835 5.18068 117.67 4.27655 114.277C3.0653 109.73 2.84617 108.425 2.65389 104.621C2.22836 96.2038 4.33279 87.7546 8.65076 80.5421C13.4459 72.5326 20.7624 66.4135 29.2443 63.3186C30.8292 62.7402 35.6077 61.537 37.343 61.2792ZM111.344 43.2682C111.394 43.3492 112.826 48.2321 114.527 54.1193C118.231 66.941 120.118 73.3405 121.377 77.3396C126.735 94.369 132.438 108.863 137.282 117.766C141.13 124.838 144.195 128.015 146.169 126.977C147.486 126.285 148.35 122.899 148.425 118.135C148.656 103.576 143.671 75.6759 134.477 40.0558L133.731 37.1665L139.557 35.6056L145.382 34.0447L148.013 43.7053C151.403 56.1556 153.668 65.4254 155.634 74.8876C160.867 100.086 161.772 117.827 158.347 128.116C156.489 133.698 153.646 137.085 149.763 138.342C143.987 140.212 137.938 137.683 131.805 130.835C123.144 121.163 116.112 104.312 104.366 65.0793C100.313 51.5397 98.887 46.6848 98.9256 46.5561C98.9955 46.3228 111.229 43.0837 111.344 43.2682ZM190.483 113.636L213.434 199.162L207.224 200.826L201.015 202.49L178.087 116.922L155.159 31.3538L161.345 29.7317L167.532 28.1098L190.483 113.636ZM125.381 138.254C127.617 140.888 128.755 142.096 130.183 143.351C133.113 145.925 135.885 147.57 139.195 148.699C148.396 151.837 158.009 148.524 163.813 140.215C166.445 136.447 167.849 132.768 168.935 126.789C169.187 125.4 169.428 124.196 169.469 124.113C169.51 124.03 174.436 142.218 180.414 164.53L191.284 205.097L185.394 206.676L179.504 208.254L172.323 181.45C168.374 166.707 165.132 154.607 165.118 154.559C165.105 154.511 164.525 154.954 163.829 155.543C160.837 158.077 159.428 158.787 155.102 159.94C152.523 160.627 151.768 160.78 150.417 160.893C147.78 161.114 146.805 161.058 142.836 160.456C142.667 160.43 143.512 163.643 148.569 182.232C151.831 194.226 155.15 206.321 155.945 209.109L157.39 214.179L151.164 215.848L144.937 217.516L133.964 176.564C127.276 151.604 123.05 135.648 123.141 135.703C123.224 135.752 124.232 136.9 125.381 138.254ZM57.0609 165.312C56.0424 168.47 55.2694 173.147 55.1792 176.697C55.1305 178.609 55.2287 180.865 55.4478 182.871C55.6584 184.799 56.6219 188.82 57.3182 190.676C60.8479 200.087 67.5686 205.01 74.4198 203.202C77.1877 202.471 79.0943 200.848 80.2171 198.265C81.4878 195.342 81.6413 192.032 80.6975 187.913C79.6587 183.379 77.4924 179.186 74.2328 175.399C71.2095 171.887 68.3222 169.616 62.7846 166.393C60.7023 165.181 57.8257 163.7 57.6471 163.748C57.5979 163.761 57.3342 164.465 57.0609 165.312Z" fill="white"/>
</svg>
